<svg width="100" height="100" fill="none" xmlns="http://www.w3.org/2000/svg"><path d="M54.33 92.5c-1.924 3.333-6.736 3.333-8.66 0l-34.641-60c-1.925-3.333.481-7.5 4.33-7.5h69.282c3.849 0 6.255 4.167 4.33 7.5l-34.64 60z" fill="#B7D761"/><mask id="a" style="mask-type:alpha" maskUnits="userSpaceOnUse" x="10" y="25" width="80" height="70"><path d="M54.33 92.5c-1.924 3.333-6.736 3.333-8.66 0l-34.641-60c-1.925-3.333.481-7.5 4.33-7.5h69.282c3.849 0 6.255 4.167 4.33 7.5l-34.64 60z" fill="#B7D761"/></mask><g filter="url(#filter0_f_121_60)" mask="url(#a)"><path d="M50 67L17.957 16.75h64.086L50 67z" fill="#E2F4AF" fill-opacity=".82"/></g><defs><filter id="filter0_f_121_60" x="2.957" y="1.75" width="94.086" height="80.25" filterUnits="userSpaceOnUse" color-interpolation-filters="sRGB"><feFlood flood-opacity="0" result="BackgroundImageFix"/><feBlend in="SourceGraphic" in2="BackgroundImageFix" result="shape"/><feGaussianBlur stdDeviation="7.5" result="effect1_foregroundBlur_121_60"/></filter></defs></svg>