<svg width="98" height="79" fill="none" xmlns="http://www.w3.org/2000/svg"><g filter="url(#filter0_d_127_67)"><path d="M3.256 11.266a10.344 10.344 0 013.603-5.78A10.198 10.198 0 0113.25 3.23h61.5c2.322 0 4.576.795 6.391 2.255a10.344 10.344 0 013.603 5.78L44 36.37 3.256 11.266zM3 17.166V53.87l29.74-18.383L3 17.166zM37.65 38.52L3.98 59.326a10.307 10.307 0 003.786 4.308 10.189 10.189 0 005.485 1.597h61.5c1.941 0 3.843-.554 5.483-1.6a10.306 10.306 0 003.783-4.31L50.345 38.515 44 42.425l-6.35-3.91v.005zm17.61-3.028L85 53.87V17.166l-29.74 18.32v.006z" fill="url(#paint0_linear_127_67)"/></g><defs><linearGradient id="paint0_linear_127_67" x1="43.623" y1="47.379" x2="205.525" y2="27.705" gradientUnits="userSpaceOnUse"><stop offset=".003" stop-color="#fff"/><stop offset="1" stop-color="#fff" stop-opacity=".2"/></linearGradient><filter id="filter0_d_127_67" x="0" y=".231" width="98" height="78" filterUnits="userSpaceOnUse" color-interpolation-filters="sRGB"><feFlood flood-opacity="0" result="BackgroundImageFix"/><feColorMatrix in="SourceAlpha" values="0 0 0 0 0 0 0 0 0 0 0 0 0 0 0 0 0 0 127 0" result="hardAlpha"/><feOffset dx="5" dy="5"/><feGaussianBlur stdDeviation="4"/><feColorMatrix values="0 0 0 0 0.628551 0 0 0 0 0.784831 0 0 0 0 0.219099 0 0 0 1 0"/><feBlend in2="BackgroundImageFix" result="effect1_dropShadow_127_67"/><feBlend in="SourceGraphic" in2="effect1_dropShadow_127_67" result="shape"/></filter></defs></svg>