<svg width="95" height="96" fill="none" xmlns="http://www.w3.org/2000/svg"><g filter="url(#filter0_d_127_71)"><path fill-rule="evenodd" clip-rule="evenodd" d="M42.5 3.231C20.685 3.231 3 20.917 3 42.731c0 21.815 17.685 39.5 39.5 39.5S82 64.546 82 42.731c0-21.814-17.685-39.5-39.5-39.5zm3.59 21.546a3.591 3.591 0 00-7.18 0v21.545a3.59 3.59 0 007.18 0V24.777zm0 34.114a3.59 3.59 0 00-7.18 0v1.795a3.59 3.59 0 107.18 0v-1.795z" fill="url(#paint0_linear_127_71)"/></g><defs><linearGradient id="paint0_linear_127_71" x1="42.137" y1="59.484" x2="199.094" y2="45.063" gradientUnits="userSpaceOnUse"><stop offset=".003" stop-color="#fff"/><stop offset="1" stop-color="#fff" stop-opacity=".2"/></linearGradient><filter id="filter0_d_127_71" x="0" y=".231" width="95" height="95" filterUnits="userSpaceOnUse" color-interpolation-filters="sRGB"><feFlood flood-opacity="0" result="BackgroundImageFix"/><feColorMatrix in="SourceAlpha" values="0 0 0 0 0 0 0 0 0 0 0 0 0 0 0 0 0 0 127 0" result="hardAlpha"/><feOffset dx="5" dy="5"/><feGaussianBlur stdDeviation="4"/><feColorMatrix values="0 0 0 0 0.628551 0 0 0 0 0.784831 0 0 0 0 0.219099 0 0 0 1 0"/><feBlend in2="BackgroundImageFix" result="effect1_dropShadow_127_71"/><feBlend in="SourceGraphic" in2="effect1_dropShadow_127_71" result="shape"/></filter></defs></svg>