<svg width="50" height="50" viewBox="0 0 50 50" fill="none" xmlns="http://www.w3.org/2000/svg">
<path d="M1.65381 19.4722C4.26365 23.2602 8.95263 25.6193 13.2372 26.7889C14.5613 27.1504 17.5587 27.7014 18.881 28.0695C27.5813 29.9158 31.9823 32.3595 35.4807 44.3372C35.7648 45.3604 36.5767 44.8538 36.5776 45.1276C36.578 45.2729 36.5787 45.4748 36.622 45.9052C44.1313 41.82 48.2981 33.1715 48.2981 24.0214C48.2981 10.7045 38.4325 0.597717 25.1155 0.597717C13.8637 0.597717 4.31486 9.04772 1.65381 19.4722Z" fill="url(#paint0_linear_42_95)"/>
<path d="M0.920259 25.1231C0.951337 28.3414 1.69455 31.6644 2.79617 34.4784C4.17264 37.9993 6.30295 41.1164 8.97753 43.6108C9.50765 44.1055 10.0601 44.5758 10.6316 45.02C10.7916 45.143 10.9516 45.266 11.1138 45.3846C13.2332 46.9472 15.6084 48.1572 18.1611 48.9328C18.1747 48.9371 18.1883 48.941 18.2014 48.9447C20.3045 49.5805 22.5273 49.9207 24.8263 49.9207C24.8536 49.9207 24.8808 49.9207 24.908 49.9201C31.5917 49.8973 37.6267 46.9963 41.9341 42.3449C42.4925 41.7456 43.0199 41.1148 43.5157 40.4567C45.0033 38.4887 46.2121 36.2783 47.0769 33.8928C47.483 32.7775 47.8128 31.622 48.061 30.4344C48.3162 29.2163 48.4861 27.965 48.5623 26.6871C48.2716 28.0701 48.0142 29.6126 48.0082 29.6382C48.0082 29.6382 46.451 35.0575 41.6782 39.3747C40.9968 39.9913 36.7079 40.9406 32.3025 41.7538C32.1882 41.2667 32.0581 40.7975 31.9134 40.3484C29.4423 32.6752 22.8974 31.0685 15.9677 29.3676C13.2702 28.7053 10.4803 28.0206 7.96082 26.9511C7.94503 26.9445 7.92925 26.9374 7.91401 26.9309C6.93322 26.5118 6.03734 26.053 5.21929 25.5485C4.30926 24.9873 3.49556 24.3695 2.76677 23.6876C2.62526 23.5553 2.48756 23.4208 2.35263 23.2843C2.20073 23.1302 2.2446 22.815 2.09928 22.6533C2.1228 22.912 1.48516 21.2855 1.32922 20.4622C1.08792 22.0243 0.911148 23.5438 0.920259 25.1231Z" fill="url(#paint1_linear_42_95)"/>
<path d="M43.9995 22.4954V22.497C43.9995 22.497 44.0011 22.497 44.0011 22.4954H43.9995Z" fill="url(#paint2_linear_42_95)"/>
<path d="M42.304 20.6045H42.2944C42.2944 20.6039 42.295 20.6029 42.295 20.6017H42.2961C42.2989 20.6022 42.3018 20.6029 42.304 20.6045Z" fill="white"/>
<path d="M44.0011 22.4954C44.0011 22.497 43.9995 22.497 43.9995 22.497V22.4954H44.0011Z" fill="white"/>
<path d="M3.90576 27.5484C3.90576 27.5484 3.90712 27.5485 3.90712 27.5497C3.90835 27.5485 3.90712 27.5484 3.90576 27.5473V27.5484Z" fill="url(#paint3_linear_42_95)"/>
<path d="M3.90625 27.5493C3.90703 27.55 3.9078 27.5516 3.90858 27.5524C3.90858 27.5508 3.9078 27.55 3.90625 27.5485V27.5493Z" fill="url(#paint4_linear_42_95)"/>
<path d="M3.90723 27.5518C3.90792 27.5525 3.90861 27.5532 3.90861 27.5546C3.90861 27.5539 3.90861 27.5532 3.90792 27.5518H3.90723Z" fill="url(#paint5_linear_42_95)"/>
<path d="M44.2158 23.1207V23.1223C44.2158 23.1223 44.2174 23.1223 44.2174 23.1207H44.2158Z" fill="url(#paint6_linear_42_95)"/>
<path d="M29.1279 0.944954C34.9304 2.10094 39.8616 5.67309 42.829 10.5683C42.829 10.5683 42.8295 10.5683 42.8295 10.5689C44.7312 13.7066 45.8263 17.3881 45.8263 21.3254C45.8263 23.3681 45.5319 25.3416 44.9827 27.2063C43.1098 33.5668 38.2761 38.6584 32.0768 40.8872C30.5027 41.4534 19.658 44.6374 10.6486 36.809C9.50668 35.8119 7.96049 33.9367 6.72656 32.1106C8.32897 35.6544 11.1509 38.6503 14.5701 40.8296C18.1678 43.1232 22.5606 44.4708 27.3018 44.4708C33.5392 44.4708 39.172 42.1386 43.1876 38.3891C43.7053 37.9068 44.1951 37.4007 44.6556 36.8733C46.0375 35.2927 47.4243 33.2015 48.3604 30.6556C49.0613 28.7493 49.3848 27.0103 49.3848 24.8845C49.3848 12.8292 40.6202 2.81999 29.1154 0.883503C29.1197 0.903587 29.1241 0.924324 29.1279 0.944954Z" fill="url(#paint7_linear_42_95)"/>
<path d="M18.3528 42.0093C14.8567 40.2098 10.1011 37.1765 9.25278 35.8912C7.26946 32.8862 5.92338 31.2233 4.30638 28.0814C2.83507 25.2226 1.87421 22.7303 1.32959 20.448C2.24013 23.4594 4.10477 25.1608 7.0074 26.5108C11.6051 28.4023 12.5341 28.4512 15.5501 29.2445C22.7609 31.1412 29.3419 32.0148 32.2512 41.1583C32.6267 42.4086 32.3379 41.6222 32.5169 43.1146C32.5169 43.7316 26.6559 43.9886 18.3528 42.0093Z" fill="url(#paint8_linear_42_95)"/>
<path d="M29.1279 0.944954C34.9304 2.10094 39.8616 5.67309 42.829 10.5683C42.829 10.5683 42.8295 10.5683 42.8295 10.5689C44.7312 13.7066 45.8263 17.3881 45.8263 21.3254C45.8263 23.3681 45.5319 25.3416 44.9827 27.2063C43.1098 33.5668 38.2761 38.6584 32.0768 40.8872C30.5027 41.4534 19.658 44.6374 10.6486 36.809C9.50668 35.8119 7.96049 33.9367 6.72656 32.1106C8.32897 35.6544 11.1509 38.6503 14.5701 40.8296C18.1678 43.1232 22.5606 44.4708 27.3018 44.4708C33.5392 44.4708 39.172 42.1386 43.1876 38.3891C43.7053 37.9068 44.1951 37.4007 44.6556 36.8733C46.0375 35.2927 47.4243 33.2015 48.3604 30.6556C49.0613 28.7493 49.3848 27.0103 49.3848 24.8845C49.3848 12.8292 40.6202 2.81999 29.1154 0.883503C29.1197 0.903587 29.1241 0.924324 29.1279 0.944954Z" fill="url(#paint9_linear_42_95)"/>
<path d="M12.0604 29.3376C12.0496 29.3522 12.0551 29.345 12.0607 29.3378C12.0607 29.3377 12.0607 29.3377 12.0607 29.3377C15.1638 30.458 19.0777 31.7477 22.4034 33.4455C25.7772 35.1679 27.9854 37.5811 30.4342 40.1654C27.795 33.5404 21.6416 31.9064 15.1491 30.1829C14.1261 29.9116 13.0899 29.6363 12.0607 29.3377C12.0639 29.3336 12.067 29.3295 12.0669 29.3295C12.0669 29.3295 12.0651 29.3317 12.0604 29.3376Z" fill="url(#paint10_linear_42_95)"/>
<defs>
<linearGradient id="paint0_linear_42_95" x1="1.65395" y1="22.7337" x2="49.228" y2="22.7337" gradientUnits="userSpaceOnUse">
<stop stop-color="#DFFE66"/>
<stop offset="1" stop-color="#35AE00"/>
</linearGradient>
<linearGradient id="paint1_linear_42_95" x1="0.920067" y1="35.5281" x2="48.5623" y2="35.5281" gradientUnits="userSpaceOnUse">
<stop stop-color="#77B731"/>
<stop offset="1" stop-color="#007D3A"/>
</linearGradient>
<linearGradient id="paint2_linear_42_95" x1="43.9996" y1="22.4962" x2="44.0011" y2="22.4962" gradientUnits="userSpaceOnUse">
<stop stop-color="#8FBC46"/>
<stop offset="0.996835" stop-color="#004E20"/>
<stop offset="1" stop-color="#004E20"/>
</linearGradient>
<linearGradient id="paint3_linear_42_95" x1="3.90583" y1="27.5485" x2="3.90762" y2="27.5485" gradientUnits="userSpaceOnUse">
<stop stop-color="#8FBC46"/>
<stop offset="0.996835" stop-color="#004E20"/>
<stop offset="1" stop-color="#004E20"/>
</linearGradient>
<linearGradient id="paint4_linear_42_95" x1="3.90628" y1="27.5504" x2="3.90852" y2="27.5504" gradientUnits="userSpaceOnUse">
<stop stop-color="#8FBC46"/>
<stop offset="0.996835" stop-color="#004E20"/>
<stop offset="1" stop-color="#004E20"/>
</linearGradient>
<linearGradient id="paint5_linear_42_95" x1="3.90721" y1="27.5532" x2="3.90855" y2="27.5532" gradientUnits="userSpaceOnUse">
<stop stop-color="#8FBC46"/>
<stop offset="0.996835" stop-color="#004E20"/>
<stop offset="1" stop-color="#004E20"/>
</linearGradient>
<linearGradient id="paint6_linear_42_95" x1="44.2159" y1="23.1215" x2="44.2174" y2="23.1215" gradientUnits="userSpaceOnUse">
<stop stop-color="#BECD3E"/>
<stop offset="1" stop-color="#00963F"/>
</linearGradient>
<linearGradient id="paint7_linear_42_95" x1="6.7266" y1="22.6771" x2="49.3848" y2="22.6771" gradientUnits="userSpaceOnUse">
<stop stop-color="#BECD3E"/>
<stop offset="0.352487" stop-color="#BECD3E"/>
<stop offset="1" stop-color="#00963F"/>
</linearGradient>
<linearGradient id="paint8_linear_42_95" x1="1.22819" y1="36.6948" x2="33.5354" y2="36.6948" gradientUnits="userSpaceOnUse">
<stop stop-color="#006B2D"/>
<stop offset="0.11251" stop-color="#006B2D"/>
<stop offset="1" stop-color="#008C42"/>
</linearGradient>
<linearGradient id="paint9_linear_42_95" x1="6.7266" y1="22.6771" x2="49.3848" y2="22.6771" gradientUnits="userSpaceOnUse">
<stop stop-color="#E8FF5C"/>
<stop offset="0.352487" stop-color="#BECD3E"/>
<stop offset="1" stop-color="#00963F"/>
</linearGradient>
<linearGradient id="paint10_linear_42_95" x1="11.956" y1="34.5727" x2="30.5328" y2="34.9219" gradientUnits="userSpaceOnUse">
<stop stop-color="white"/>
<stop offset="0.581915" stop-color="white"/>
<stop offset="1" stop-color="#008C42"/>
</linearGradient>
</defs>
</svg>
